<svg xmlns="http://www.w3.org/2000/svg" xml:space="preserve" style="fill-rule:evenodd;clip-rule:evenodd;stroke-linecap:round;stroke-linejoin:round;stroke-miterlimit:6" viewBox="0 0 754 754"><path d="M658 41.685C685.815 51.73 730.935 271.525 621 377c-88.444-47.486-136.772-65.622-195-128C491.5 126.167 631.96 32.282 658 41.685" style="fill:#fe7e02"/><clipPath id="a"><path d="M658 41.685C685.815 51.73 730.935 271.525 621 377c-88.444-47.486-136.772-65.622-195-128C491.5 126.167 631.96 32.282 658 41.685"/></clipPath><g clip-path="url(#a)"><path d="M536 274c10.707-20.5 40.445-62.441 86.778-82.47-4.469 41.063-26.256 55.965-42.778 70.295 16.474-5.336 26.319-10.851 44.399-13.825-4.25 36.021-69.4 69.918-87.239 76-.458-23.599-1.636-27.988-1.16-50" style="fill:#210c0b"/><path d="M678.319 22.326C603.032 103.395 543.101 236.766 528 347c-89.193-22.183-146.917-82.297-102-133.982C470.111 146.256 597.716 6.817 678.319 22.326" style="fill:#fe7e02"/><clipPath id="b"><path d="M678.319 22.326C603.032 103.395 543.101 236.766 528 347c-89.193-22.183-146.917-82.297-102-133.982C470.111 146.256 597.716 6.817 678.319 22.326"/></clipPath><g clip-path="url(#b)"><g transform="scale(.36816)"><path d="M1416.308 364.343c17.49-19.044 236.232-220.274 359.882-240.253-25.379 49.471-153.047 226.907-192.109 308.557-51.801 32.469-145.99 24.676-167.773-68.304" style="fill:#69241d;fill-rule:nonzero"/><clipPath id="c"><path d="M1416.308 364.343c17.49-19.044 236.232-220.274 359.882-240.253-25.379 49.471-153.047 226.907-192.109 308.557-51.801 32.469-145.99 24.676-167.773-68.304" clip-rule="nonzero"/></clipPath><g clip-path="url(#c)"><path d="M602 116c-22.529 37.373-30.084 41.721-51 52.285-8.109 4.096 30 1.715 30 1.715s23.345-57.89 21-54" style="fill:#210c0b" transform="scale(2.71618)"/></g></g></g><path d="M678.319 22.326C603.032 103.395 543.101 236.766 528 347c-89.193-22.183-146.917-82.297-102-133.982C470.111 146.256 597.716 6.817 678.319 22.326" style="fill:none;stroke:#210c0b;stroke-width:18px"/></g><path d="M658 41.685C685.815 51.73 730.935 271.525 621 377c-88.444-47.486-136.772-65.622-195-128C491.5 126.167 631.96 32.282 658 41.685" style="fill:none;stroke:#210c0b;stroke-width:20px"/><g transform="matrix(-1 0 0 1 755.2 0)"><path d="M658 41.685C685.815 51.73 730.935 271.525 621 377c-88.444-47.486-136.772-65.622-195-128C491.5 126.167 631.96 32.282 658 41.685" style="fill:#fee9c7"/><clipPath id="d"><path d="M658 41.685C685.815 51.73 730.935 271.525 621 377c-88.444-47.486-136.772-65.622-195-128C491.5 126.167 631.96 32.282 658 41.685"/></clipPath><g clip-path="url(#d)"><path d="M154 378c38.908-33.623 80-127 80-127L101 35 82.631 52.782S143.272 176.137 155 228.017c3.996 17.676-28.916-39.757-30.954-45.365.26 15.233-2.846 36.859 38.954 93.348 7.444 10.06-14.699-2-30.199-16-5.658 4.089 14.051 46.279 20.584 55.612C136.743 317.715 127.731 304.435 117 297c-4.717 9.864 11.667 50.833 37 81" style="fill:#fed59a" transform="matrix(-1 0 0 1 755.2 0)"/><path d="M536 274c10.707-20.5 44.445-63.441 90.778-83.47-4.469 36.063-28.256 56.965-44.778 71.295 16.474-5.336 27.319-10.851 45.399-13.825-4.25 36.021-58.4 60.918-90.239 64-.458-23.599-1.636-15.988-1.16-38" style="fill:#210c0b"/><path d="M678.319 22.326C603.032 103.395 543.101 236.766 528 347c-89.193-22.183-146.917-82.297-102-133.982C470.111 146.256 597.716 6.817 678.319 22.326" style="fill:#fe7e02"/><clipPath id="e"><path d="M678.319 22.326C603.032 103.395 543.101 236.766 528 347c-89.193-22.183-146.917-82.297-102-133.982C470.111 146.256 597.716 6.817 678.319 22.326"/></clipPath><g clip-path="url(#e)"><g transform="scale(.36816)"><path d="M1416.308 364.343c17.49-19.044 236.232-220.274 359.882-240.253-25.379 49.471-153.047 226.907-192.109 308.557-51.801 32.469-145.99 24.676-167.773-68.304" style="fill:#69241d;fill-rule:nonzero"/><clipPath id="f"><path d="M1416.308 364.343c17.49-19.044 236.232-220.274 359.882-240.253-25.379 49.471-153.047 226.907-192.109 308.557-51.801 32.469-145.99 24.676-167.773-68.304" clip-rule="nonzero"/></clipPath><g clip-path="url(#f)"><path d="M602 116c-22.529 37.373-30.084 41.721-51 52.285-8.109 4.096 30 1.715 30 1.715s23.345-57.89 21-54" style="fill:#210c0b" transform="scale(2.71618)"/></g></g></g><path d="M678.319 22.326C603.032 103.395 543.101 236.766 528 347c-89.193-22.183-146.917-82.297-102-133.982C470.111 146.256 597.716 6.817 678.319 22.326" style="fill:none;stroke:#210c0b;stroke-width:18px"/></g><path d="M658 41.685C685.815 51.73 730.935 271.525 621 377c-88.444-47.486-136.772-65.622-195-128C491.5 126.167 631.96 32.282 658 41.685" style="fill:none;stroke:#210c0b;stroke-width:20px"/></g><path d="M837.87 591.722c117.809-111.145 191.331-160.208 329.602-192.757a43.46 43.46 0 0 1 45.345 67.53c-9.673 13.57-20.103 28.058-31.079 42.915 83.546-14.138 176.379-2.338 264.772 56.11 15.382 10.171 22.67 28.941 18.182 46.827-4.487 17.886-19.773 30.992-38.134 32.697-16.634 1.544-32.287 3.356-47.235 5.644 58.824 17.36 116.968 47.838 165.775 94.997 13.483 13.028 17.014 33.127 9.077 49.861 17.581 12.829 34.218 28.24 49.471 46.985 75.749 93.089 105.216 160.582 173.126 251.527 59.623 79.847 133.32 123.847 173.026 136.852a43.46 43.46 0 0 1 19.468 69.583c-24.181 28.211-46.611 47.292-71.18 60.676a43.46 43.46 0 0 1 12.644 71.726c-155.78 145.646-445.651 292.187-571.851 358.264-60.619 31.739-119.116 74.458-174.987 102.998-44.324 22.641-87.588 36.615-128.979 35.351-67.312-2.055-131.583-27.576-189.839-59.169-52.142-28.276-99.114-61.282-138.747-81.927-125.713-65.483-214.53-115.84-311.175-170.203-60.417-33.692-187.85-122.643-255.196-185.223a43.46 43.46 0 0 1 13.338-72.145c-25.076-13.767-47.943-33.417-70.982-62.184a43.46 43.46 0 0 1-8.311-37.422 43.46 43.46 0 0 1 24.547-29.443c82.699-36.841 148.6-97.748 185.697-151.936 45.924-67.082 126.67-201.907 195.161-270.606 97.748-98.046 224.685-193.812 358.464-217.528M510.183 839.933c-66.86 67.063-145.247 198.989-190.077 264.473-40.755 59.531-113.019 126.61-203.873 167.084 44.698 55.81 89.196 69.64 156.977 77.23-33.196 27.88-62.287 40.61-103.671 52.43 65.157 60.546 188.484 146.612 246.868 179.152 96.284 54.16 184.756 104.33 309.997 169.567 79.623 41.475 188.798 132.505 309.836 136.2 86.768 2.65 181.667-80.626 282.48-133.411 124.02-64.936 409.24-208.378 562.33-351.508-44.23-11.6-66.11-24.23-100.09-52.68 69.64-8.54 108.87-22.08 155.31-76.26-44.42-14.55-127.617-62.822-194.32-152.15-67.508-90.406-96.712-157.561-172.013-250.1-63.103-77.549-153.894-88.732-231.167-105.273 58.7-3.57 118.85-2.959 176.13 12.251-96.502-93.244-233.85-113.392-328.41-95.32 77.89-54.322 142.84-71.193 236.05-79.847-140.196-92.702-292.922-52.244-388.9 14.523 50.94-46.746 103.92-119.098 143.79-175.026-133.55 31.437-202.529 80.013-318.52 190.388l-1.131.909c-130.002 18.052-252.924 112.408-347.596 207.368" style="fill:#210c0b" transform="scale(.36816)"/><path d="M510.183 839.933c94.672-94.96 217.594-189.316 347.596-207.368l1.131-.909c115.991-110.375 184.97-158.951 318.52-190.388-39.87 55.928-92.85 128.28-143.79 175.026 95.978-66.767 248.704-107.225 388.9-14.523-93.21 8.654-158.16 25.525-236.05 79.847 94.56-18.072 231.908 2.076 328.41 95.32-57.28-15.21-117.43-15.821-176.13-12.251 77.273 16.541 168.064 27.724 231.167 105.273 75.301 92.539 104.505 159.694 172.013 250.1 66.703 89.328 149.9 137.6 194.32 152.15-46.44 54.18-85.67 67.72-155.31 76.26 33.98 28.45 55.86 41.08 100.09 52.68-153.09 143.13-438.31 286.572-562.33 351.508-100.813 52.785-195.712 136.061-282.48 133.411-121.038-3.695-230.213-94.725-309.836-136.2-125.241-65.237-213.713-115.407-309.997-169.567-58.384-32.54-181.711-118.606-246.868-179.152 41.384-11.82 70.475-24.55 103.671-52.43-67.781-7.59-112.279-21.42-156.977-77.23 90.854-40.474 163.118-107.553 203.873-167.084 44.83-65.484 123.217-197.41 190.077-264.473" style="fill:#fe7e02;fill-rule:nonzero" transform="scale(.36816)"/><g transform="scale(.36816)"><path d="M340.941 1278.38c52.576-40.53 116.233-57.603 207.514-39.004 162.089 28.085 289.082 139.93 377.309 189.064 174.859-8.719 198.356-9.786 362.296-20.9.51-13.27-2.42-26.34-6.15-38.99 96.47-58.99 213.24-118.26 329.1-120.85 40.9-.91 84.282 3.307 125.86 34.49-24.866-7.687-69.77-5.79-79.85-4.8 39.342 18.866 73.19 45.725 111.54 72.21-25.913 7.946-64.377 26.054-108.7 34.55 37.75 16.73 76.49 32.59 116.33 43.71-53.189 26.969-425.268 265.752-545.301 376.141-59.49 41.976-114.769 69.729-159.339 78.139-97.562 18.42-178.605-31.04-255.512-83.38-2.984-6.8-220.487-167.17-313.429-228.08a5742 5742 0 0 0-227.517-144.24c24.539-4.406 86.917-29.058 120.133-42.53-38.822-5.808-78.452-27.69-105.841-33.93 33.437-23.601 86.944-63.795 144.455-87.1-36.647.65-58.271 3.98-92.898 15.5" style="fill:#fee9c7;fill-rule:nonzero"/><clipPath id="g"><path d="M340.941 1278.38c52.576-40.53 116.233-57.603 207.514-39.004 162.089 28.085 289.082 139.93 377.309 189.064 174.859-8.719 198.356-9.786 362.296-20.9.51-13.27-2.42-26.34-6.15-38.99 96.47-58.99 213.24-118.26 329.1-120.85 40.9-.91 84.282 3.307 125.86 34.49-24.866-7.687-69.77-5.79-79.85-4.8 39.342 18.866 73.19 45.725 111.54 72.21-25.913 7.946-64.377 26.054-108.7 34.55 37.75 16.73 76.49 32.59 116.33 43.71-53.189 26.969-425.268 265.752-545.301 376.141-59.49 41.976-114.769 69.729-159.339 78.139-97.562 18.42-178.605-31.04-255.512-83.38-2.984-6.8-220.487-167.17-313.429-228.08a5742 5742 0 0 0-227.517-144.24c24.539-4.406 86.917-29.058 120.133-42.53-38.822-5.808-78.452-27.69-105.841-33.93 33.437-23.601 86.944-63.795 144.455-87.1-36.647.65-58.271 3.98-92.898 15.5" clip-rule="nonzero"/></clipPath><g clip-path="url(#g)"><path d="M657.528 1419.938c16.291-6.04 52.239-10.464 69.913-7.894-12.313 5.582-12.636 19.594-25.074 34.046 54.564 80.917 129.626 119.826 171.279 140.48 71.332 35.37 168.598 43.9 177.791 12.199-.112-18.267-22.459-12.228-16.857-39.799 26.22 8.78 59.655 12.055 84.335 26.465-1.12 28.19-3.626 59.6-16.636 84.7-176.277-16.377-184.344-22.477-274.766-75.041-71.447-41.533-154.377-138.468-169.985-175.156" style="fill:#fed59a;fill-rule:nonzero"/></g></g><g transform="scale(.36816)"><path d="M925.764 1428.44c24.838-54.17 94.166-71.8 148.636-75.12 74.54-4.55 155.17 3.76 213.66 54.22 35.54 41.02 21.97 91.53-16.97 124.18-47.613 39.922-103.379 49.148-132.04 62.56-.41 27.59-.37 39.1-9.96 65.24 49.77 1.72 91.42-5.31 136.96-25.86 64.14-28.94 126.07-81.77 127.7-157.48.64-29.63-2.99-45.28-18.11-70.23 22.63 22 41.23 53.5 40.35 85.9-3.1 113.58-133.61 186.48-234.6 197.32-42.49 4.57-106.8 4.48-149.27-1.32-111.254-15.21-222.415-65.17-301.939-145.33-24.767-24.88-64.22-70.72-80.669-101.69-23.827-3.62-55.377-10.84-74.639-26.23 41.342-31.709 104.228-33.368 155.13-.378-16.278-.57-30.152 1.304-56.195 11.341 75.457 103.43 120.232 136.784 199.838 180.02 90.628 39.836 136.632 52.55 221.527 52.933 13.468-26.415 9.713-48.572 11.223-62.201-27.044-14.159-50.899-18.692-74.086-25.965-57.338-21.13-133.093-70.24-106.546-141.91" style="fill:#210c0b;fill-rule:nonzero"/><clipPath id="h"><path d="M925.764 1428.44c24.838-54.17 94.166-71.8 148.636-75.12 74.54-4.55 155.17 3.76 213.66 54.22 35.54 41.02 21.97 91.53-16.97 124.18-47.613 39.922-103.379 49.148-132.04 62.56-.41 27.59-.37 39.1-9.96 65.24 49.77 1.72 91.42-5.31 136.96-25.86 64.14-28.94 126.07-81.77 127.7-157.48.64-29.63-2.99-45.28-18.11-70.23 22.63 22 41.23 53.5 40.35 85.9-3.1 113.58-133.61 186.48-234.6 197.32-42.49 4.57-106.8 4.48-149.27-1.32-111.254-15.21-222.415-65.17-301.939-145.33-24.767-24.88-64.22-70.72-80.669-101.69-23.827-3.62-55.377-10.84-74.639-26.23 41.342-31.709 104.228-33.368 155.13-.378-16.278-.57-30.152 1.304-56.195 11.341 75.457 103.43 120.232 136.784 199.838 180.02 90.628 39.836 136.632 52.55 221.527 52.933 13.468-26.415 9.713-48.572 11.223-62.201-27.044-14.159-50.899-18.692-74.086-25.965-57.338-21.13-133.093-70.24-106.546-141.91" clip-rule="nonzero"/></clipPath><g clip-path="url(#h)"><path d="M1117.988 1393.94c82.131 1.885 124.445 30.967 123.088 47.452-1.486 12.277-58.475 18.601-117.611 15.075-110.193-9.153-128.632-13.131-126.599-23.53 5.462-24.914 49.585-36.236 121.122-38.997" style="fill:#69241d;fill-rule:nonzero"/></g></g><g transform="scale(.36816)"><path d="M1519.559 1055.182c16.538 184.485-155.456 204.886-296.581 171.708 14.993-85.531 95.213-179.698 296.581-171.708" style="fill:#fefdfc"/><clipPath id="i"><path d="M1519.559 1055.182c16.538 184.485-155.456 204.886-296.581 171.708 14.993-85.531 95.213-179.698 296.581-171.708"/></clipPath><g clip-path="url(#i)"><path d="M1335.261 1081.973c93.817-41.028 146.015-39.473 198.093-34.94 0 0 2.609 47.056 0 65.704-24.722-27.162-132.508-35.75-198.093-30.764" style="fill:#fed59a;fill-rule:nonzero"/><g transform="scale(2.71618)"><path d="M500.166 451.977c-46.778 3.882-45.132-63.535-3.166-76.583 44.079-13.705 39.076 73.602 3.166 76.583" style="fill:#210c0b"/><clipPath id="j"><path d="M500.166 451.977c-46.778 3.882-45.132-63.535-3.166-76.583 44.079-13.705 39.076 73.602 3.166 76.583"/></clipPath><g clip-path="url(#j)"><path d="M1383.59 1081c26.16-4.964 25.639 36.67 3.29 39.96-22.716 3.344-30.076-34.877-3.29-39.96" style="fill:#fefdfc;fill-rule:nonzero" transform="scale(.36816)"/></g></g></g></g><path d="M1511.41 1060.52c-65.296-11.538-262.798 16.527-289.75 180.9-12.65-38.27-4.87-62.68 11.87-97.84-14.07 9.51-20.93 9.51-33.47 22.55 43.544-86.633 258.782-186.285 371.87-118.12-10.59 4.21-22.18 7.91-33.29 12.3 2.4 45.25 2.915 120.876-86.18 153.98l-.65-1.74c40.13-21.53 70.835-73.419 59.6-152.03" style="fill:#210c0b" transform="scale(.36816)"/><path d="M1448.09 939.468c45.48.247 66.72 7.921 101.11 35.722-15.24-3.14-41.83-3.249-56.72-2.555-72.51 3.376-135 43.265-194.27 81.225-19.8 12.68-44.25 27.88-65.57 37.76-38.63 17.32-87.83 8.85-52.76-41.71-13.56 70.61 56.42 4.56 75.46-12.25 57.62-50.871 112.22-96.248 192.75-98.192" style="fill:#210c0b;fill-rule:nonzero" transform="scale(.36816)"/><g transform="scale(.36816)"><path d="M885.264 1222.454c-141.288 46.632-351.099-21.099-307.728-190.396 87.865-22.45 298.165 30.548 307.728 190.396" style="fill:#fefdfc"/><clipPath id="k"><path d="M885.264 1222.454c-141.288 46.632-351.099-21.099-307.728-190.396 87.865-22.45 298.165 30.548 307.728 190.396"/></clipPath><g clip-path="url(#k)"><path d="M570.95 1032.058c39.542-18.631 272.121-19.628 314.314 174.754-103.794-145.264-262.296-149.6-314.314-115.208-2.057-15.57-1.697-43.506 0-59.546" style="fill:#fed59a;fill-rule:nonzero"/><g transform="translate(-605.708)scale(2.71618)"><path d="M505.166 448.977c-48.778 4.882-55.068-84.972-14.363-88.583 54.166-4.804 50.217 84.994 14.363 88.583" style="fill:#210c0b"/><clipPath id="l"><path d="M505.166 448.977c-48.778 4.882-55.068-84.972-14.363-88.583 54.166-4.804 50.217 84.994 14.363 88.583"/></clipPath><g clip-path="url(#l)"><path d="M1396.406 1090.109c23.443.521 24.02 35.478-.27 35.722-25.589-.069-24.273-36.267.27-35.722" style="fill:#fefdfc;fill-rule:nonzero" transform="scale(.36816)"/></g></g></g></g><path d="M639.972 1196.5c-70.642-21.369-91.475-86.799-86.815-153.62-8.993-1.96-26.74-7.56-35.723-10.74 35.313-30.34 78.487-33.583 123.475-30.54 109.239 7.38 256.116 79.74 254.056 205.24-.098 6.03-3.732 27.84-11.176 27.14-2.179-2.35-3.786-16.858-6.904-31.13-27.282-126.195-198.682-182.86-293.917-165.36-1.697 16.04-21.248 105.528 57.004 159.01" style="fill:#210c0b" transform="scale(.36816)"/><path d="M549.846 938.867c24.609-29.108 68.45-54.684 145.667-44.952 80.826 10.186 138.692 64.695 196.011 117.185 14.56 11.83 28.463 27.9 45.672 35.57 13.839 6.17 15.143-12.03 17.054-21.01 8.936 54.21-40.178 36.17-67.823 20.27-17.519-10.04-106.148-70.223-135.074-84.358-61.267-29.937-136.304-44.488-202.172-21.906z" style="fill:#210c0b;fill-rule:nonzero" transform="scale(.36816)"/><path d="M204 298c12.239-14.926 15.912-17.14 12-42-3.401-21.613 51.745-47.433 72-44 16.779 2.844 11.383 26.653 56.789 9-29.992 48.567-55.693 56.548-140.789 77" style="fill:#fe7e02"/></svg>